<?xml version="1.0" encoding="UTF-8"?>
<!-- Created with Inkscape (http://www.inkscape.org/) -->
<svg width="169mm" height="180mm" version="1.1" viewBox="0 0 169 180" xmlns="http://www.w3.org/2000/svg" xmlns:xlink="http://www.w3.org/1999/xlink">
 <defs>
  <marker id="DartArrow" overflow="visible" markerHeight="1" markerWidth="1" orient="auto-start-reverse" preserveAspectRatio="xMidYMid" viewBox="0 0 1 1">
   <path transform="scale(-.5)" d="m0 0 5-5-17.5 5 17.5 5z" fill="context-stroke" fill-rule="evenodd"/>
  </marker>
  <linearGradient id="linearGradient9" x1="92.071" x2="131.03" y1="89.667" y2="41.988" gradientUnits="userSpaceOnUse">
   <stop stop-color="#ae8545" offset="0"/>
   <stop stop-color="#4580ae" offset="1"/>
  </linearGradient>
  <linearGradient id="linearGradient11" x1="133.31" x2="142.36" y1="39.296" y2="80.936" gradientUnits="userSpaceOnUse">
   <stop stop-color="#4580ae" offset="0"/>
   <stop stop-color="#7945ae" offset="1"/>
  </linearGradient>
  <linearGradient id="linearGradient13" x1="141.88" x2="110.43" y1="83.481" y2="173.76" gradientUnits="userSpaceOnUse">
   <stop stop-color="#7945ae" offset="0"/>
   <stop stop-color="#ae4593" offset="1"/>
  </linearGradient>
  <linearGradient id="linearGradient15" x1="105.52" x2="89.341" y1="175.52" y2="92.353" gradientUnits="userSpaceOnUse">
   <stop stop-color="#ae4593" offset="0"/>
   <stop stop-color="#ae8545" offset="1"/>
  </linearGradient>
  <clipPath id="clipPath1">
   <path class="st0" d="m351.09 557.42c-13.853-12.047-28.85-26.387-48.901-23.398-11.039 3.5269-22.208 1.5354-32.948 2.7568-10.407 4.5713-7.887 23.644-12.345 5.254-9.6288 9.1107-15.925-2.1684-23.554-2.324-10.12 6.6072-11.893-17.807-24.523-12.163-8.5692-0.89355-17.774-7.8227-25.402-1.7736-8.2862-5.1044-14.824-15.761-23.543-17.824-6.1258-14.071-23.666-9.9625-33.071-20.149-9.8529-6.4553-17.898 10.025-26.728 0.69967-14.1-3.4109-29.248-5.169-42.897-11.249-16.707-2.966-33.289-6.4637-49.003-12.236-26.664-5.4469-54.334-7.6605-80.372-15.125-12.199-13.18-30.487-11.602-46.717-12.736-10.875-2.2364-13.932-14.736-25.113-15.964-11.135-6.2836-25.156-5.861-34.525-15.897-10.669-5.0491-14.494-23.007-29.056-18.033-17.28-6.1102-21.354-26.438-36.03-35.958-7.2523-9.0542-22.064-8.6614-29.529-18.657-13.993-6.5039-31.161-5.5127-43.806-15.904-24.724-8.6344-52.056-2.2143-77.863-3.5287-13.231 3.9911-18.389-12.201-29.965-10.16-21.065 4.8441-4.8435-3.0826-0.34295-14.692 7.2148-8.4419-15.563-16.755 4.0109-17.097 9.136-3.8755 19.516-6.6148 30.312-4.0355 10.654 6.4097 22.701-6.2652 33.855-8.0526 14.561-3.7231 26.043-12.81 39.033-19.507 5.2307-10.502 15.617-13.519 19.117-24.891 8.0539-8.0933 8.6979-17.808 14.114-26.302 3.5278-7.2198 23.038-22.56 12.165-10.109-4.7906 7.5785 11.281 0.83954 13.739-5.8916 6.3298-12.345 16.827-9.8358 27.408-9.7026 10.59-4.3775 21.276-15.917 33.472-10.2 9.3295-10.632 26.956-4.3086 36.31-14.591 5.2791 14.193 23.065 0.3657 6.937-3.6572 2.5403-6.14 19.506-3.8153 7.171-14.378 10.356-14.954 13.704 18.528 18.44 2.9608 2.5149-5.6795 4.473 5.1289 15.206-3.9643 3.3279 9.9764 16.003 2.1969 23.296 8.075 9.7225 7.9202 14.49-0.32512 17.82 11.317-0.64687-5.6679 10.885-5.4688 11.682 4.3381 10.228-3.3084 18.477-9.2285 26.575-4.8308 6.6325 5.1218 7.92-9.9927 21.221-3e-3 14.583-1.6269 28.823 1.6592 41.75 7.4687 13.672 0.15432 24.199 9.4708 33.596 17.569 11.668 0.85983 16.691 13.36 28.356 15.13 10.037 5.3013 23.748 6.1494 28.804 17.874 7.8703 7.2466 18.941 5.7732 27.058 12.428 9.894 10.142 21.523 15.905 35.286 18.649 12.112 8.5313 27.76 9.8896 37.201 22.349 6.9414 10.19 18.44 10.703 28.395 15.667 11.537 2.1894 13.768 11.056 22.366 16.325 12.408 6.099 2.0671 21.534 15.442 21.096 8.7636 7.2953 18.329 10.794 28.677 16.586 7.9099 7e-3 15.009 3.4821 22.876 7.3428 5.6152 8.0777 19.054 8.4971 26.826 16.405 13.425 6.7445 16.058 21.204 21.604 33.466 14.871 15.272 6.1877 40.687 20.69 55.92 0.5521 9.1935-12.734 20.108 2.3251 9.2554 5.5998-10.418 14.966 3.8057 22.299 7.3866 10.721 11.229 14.631 34.375-2.9352 41.25-14.383 1.7502-5.4908 17.416-17.201 13.881-12.446 14.55-9.311 36.815-17.982 53.417-7.7523-3.9805-27.346-0.60721-22.114 11.593-1.5168 20.862-10.998 4.3091-14.627-6.4427-1.4476-1.6771-2.8952-3.3543-4.3429-5.0314z" fill="none" stroke="#000" stroke-linecap="round" stroke-linejoin="round" stroke-width="4.4989"/>
  </clipPath>
 </defs>
 <g>
  <path class="st0" d="m151.81 48.499c-1.9601 2.254-4.2933 4.6941-3.8071 7.9566 0.57386 1.7962 0.24982 3.6135 0.44856 5.361 0.74379 1.6933 3.847 1.2833 0.85486 2.0086 1.4824 1.5667-0.35281 2.5911-0.37813 3.8324 1.075 1.6466-2.8974 1.9351-1.9791 3.9902-0.14539 1.3943-1.2728 2.8919-0.28857 4.1331-0.83052 1.3482-2.5645 2.4119-2.9001 3.8306-2.2894 0.99671-1.621 3.8506-3.2784 5.3808-1.0503 1.6031 1.6311 2.9122 0.11384 4.3488-0.55498 2.2943-0.84104 4.7589-1.8303 6.9797-0.48259 2.7183-1.0517 5.4164-1.9909 7.9732-0.88625 4.3385-1.2464 8.8406-2.4609 13.077-2.1445 1.985-1.8877 4.9604-2.0722 7.6012-0.36388 1.7694-2.3976 2.2669-2.5974 4.086-1.0224 1.8118-0.95362 4.0931-2.5866 5.6175-0.82153 1.736-3.7434 2.3584-2.9341 4.7277-0.99418 2.8116-4.3016 3.4744-5.8507 5.8624-1.4732 1.18-1.4093 3.59-3.0356 4.8046-1.0582 2.2768-0.89696 5.0702-2.5876 7.1276-1.4049 4.0228-0.36028 8.4699-0.57415 12.669 0.64938 2.1528-1.9852 2.992-1.6531 4.8756 0.78818 3.4275-0.50157 0.78808-2.3905 0.0558-1.3736-1.1739-2.7261 2.5323-2.7818-0.65261-0.63057-1.4865-1.0763-3.1754-0.6566-4.9319 1.0429-1.7335-1.0194-3.6937-1.3102-5.5085-0.60578-2.3691-2.0842-4.2374-3.174-6.3509-1.7088-0.85108-2.1997-2.5411-4.05-3.1105-1.3169-1.3104-2.8976-1.4152-4.2795-2.2965-1.1747-0.574-3.6706-3.7485-1.6448-1.9793 1.2331 0.77947 0.1366-1.8355-0.9586-2.2354-2.0086-1.0299-1.6004-2.7379-1.5787-4.4596-0.71225-1.723-2.5898-3.4618-1.6597-5.4462-1.7298-1.518-0.70104-4.3859-2.3741-5.9079 2.3094-0.85895 0.0595-3.7529-0.59505-1.1287-0.99902-0.41333-0.62078-3.1738-2.3394-1.1668-2.4332-1.6851 3.0146-2.2298 0.48174-3.0003-0.9241-0.40919 0.83451-0.7278-0.64502-2.4742 1.6232-0.54148 0.35745-2.6039 1.3139-3.7904 1.2887-1.5819-0.0529-2.3576 1.8413-2.8995-0.92221 0.10525-0.88982-1.771 0.70584-1.9008-0.53831-1.6642-1.5016-3.0064-0.786-4.324 0.83336-1.0792-1.6259-1.2886-4.8e-4 -3.4528-0.26471-2.3728 0.26996-4.6897 1.2152-6.793 0.0251-2.2246 1.541-3.9374 2.8586-5.4663 0.1399-1.8985 2.1737-2.7157 2.4618-4.6137 0.86256-1.6331 1.0006-3.864 2.9082-4.6867 1.1791-1.2806 0.93934-3.0818 2.0221-4.4026 1.6501-1.6098 2.5878-3.5019 3.0343-5.7413 1.3881-1.9707 1.6091-4.5167 3.6363-6.0528 1.6581-1.1294 1.7414-3.0003 2.5492-4.6201 0.35623-1.8772 1.7989-2.2402 2.6562-3.6391 0.99236-2.0189 3.5038-0.33633 3.4324-2.5125 1.187-1.4259 1.7563-2.9823 2.6987-4.666 1e-3 -1.287 0.56657-2.4421 1.1947-3.7221 1.3143-0.91364 1.3825-3.1003 2.6693-4.3648 1.0974-2.1843 3.45-2.6127 5.4453-3.5152 2.4848-2.4196 6.6201-1.0068 9.0987-3.3664 1.4958-0.08983 3.2717 2.072 1.5059-0.37831-1.695-0.91113 0.61921-2.4351 1.2018-3.6282 1.827-1.7443 5.5931-2.3806 6.7116 0.47757 0.28477 2.3402 2.8338 0.89339 2.2585 2.7987 2.3674 2.025 5.9901 1.515 8.6913 2.9258-0.64766 1.2614-0.0988 4.4494 1.8863 3.5981 3.3944 0.24679 0.70112 1.7895-1.0483 2.3799-0.27288 0.23554-0.54577 0.47108-0.81865 0.70662z" fill="#d2dbee"/>
  <g transform="matrix(0 -.16271 .16271 0 60.945 105.99)" clip-path="url(#clipPath1)">
   <g transform="rotate(16.937 29.717 250.46)">
    <g fill="#fff">
     <path d="m-22.42 639.55c-0.94531 0-1.8594-0.39062-2.5312-1.043-0.65625-0.67578-1.043-1.5898-1.043-2.5312 0-0.94531 0.38672-1.8594 1.043-2.5312 0.67188-0.65625 1.5859-1.0391 2.5312-1.0391 0.94141 0 1.8711 0.38281 2.5273 1.0391 1.332 1.332 1.332 3.7305 0 5.0625-0.67188 0.65235-1.5859 1.043-2.5273 1.043"/>
     <path d="m-42.959 639.55c-1.9727 0-3.5703-1.6016-3.5703-3.5742 0-1.9726 1.5977-3.5703 3.5703-3.5703s3.5742 1.5977 3.5742 3.5703c0 1.9727-1.6016 3.5742-3.5742 3.5742m-20.551 0c-1.957 0-3.5703-1.6016-3.5703-3.5742 0-1.9726 1.6133-3.5703 3.5703-3.5703 1.9727 0 3.5742 1.5977 3.5742 3.5703 0 1.9727-1.6016 3.5742-3.5742 3.5742m-20.539 0c-1.9688 0-3.5703-1.6016-3.5703-3.5742 0-1.9726 1.6016-3.5703 3.5703-3.5703 1.9727 0 3.5742 1.5977 3.5742 3.5703 0 1.9727-1.6016 3.5742-3.5742 3.5742m-20.535 0c-1.9727 0-3.5742-1.6016-3.5742-3.5742 0-1.9726 1.6016-3.5703 3.5742-3.5703s3.5703 1.5977 3.5703 3.5703c0 1.9727-1.5976 3.5742-3.5703 3.5742m-20.551 0c-1.9727 0-3.5742-1.6016-3.5742-3.5742 0-1.9726 1.6016-3.5703 3.5742-3.5703 1.9726 0 3.5703 1.5977 3.5703 3.5703 0 1.9727-1.5977 3.5742-3.5703 3.5742m-20.539 0c-1.9727 0-3.5703-1.6016-3.5703-3.5742 0-1.9726 1.5977-3.5703 3.5703-3.5703 1.9726 0 3.5742 1.5977 3.5742 3.5703 0 1.9727-1.6016 3.5742-3.5742 3.5742m-20.551 0c-1.9726 0-3.5742-1.6016-3.5742-3.5742 0-1.9726 1.6016-3.5703 3.5742-3.5703 1.9883 0 3.5859 1.5977 3.5859 3.5703 0 1.9727-1.5976 3.5742-3.5859 3.5742"/>
     <path d="m-42.959 624.9c-1.9727 0-3.5703-1.6055-3.5703-3.5742 0-1.9727 1.5977-3.5742 3.5703-3.5742s3.5742 1.6016 3.5742 3.5742c0 1.9688-1.6016 3.5742-3.5742 3.5742m-20.551 0c-1.9727 0-3.5703-1.6055-3.5703-3.5742 0-1.9727 1.5977-3.5742 3.5703-3.5742 1.9727 0 3.5742 1.6016 3.5742 3.5742 0 1.9688-1.6016 3.5742-3.5742 3.5742m-20.539 0c-1.9688 0-3.5703-1.6055-3.5703-3.5742 0-1.9727 1.6016-3.5742 3.5703-3.5742 1.9727 0 3.5742 1.6016 3.5742 3.5742 0 1.9688-1.6016 3.5742-3.5742 3.5742m-20.535 0c-1.9727 0-3.5742-1.6055-3.5742-3.5742 0-1.9727 1.6016-3.5742 3.5742-3.5742s3.5703 1.6016 3.5703 3.5742c0 1.9688-1.5976 3.5742-3.5703 3.5742m-20.551 0c-1.9727 0-3.5742-1.6055-3.5742-3.5742 0-1.9727 1.6016-3.5742 3.5742-3.5742 1.9726 0 3.5703 1.6016 3.5703 3.5742 0 1.9688-1.5977 3.5742-3.5703 3.5742m-20.539 0c-1.9727 0-3.5703-1.6055-3.5703-3.5742 0-1.9727 1.5977-3.5742 3.5703-3.5742 1.9726 0 3.5742 1.6016 3.5742 3.5742 0 1.9688-1.6016 3.5742-3.5742 3.5742m-20.539 0c-1.9688 0-3.5703-1.6055-3.5703-3.5742 0-1.9727 1.6016-3.5742 3.5703-3.5742 1.9766 0 3.5742 1.6016 3.5742 3.5742 0 1.9688-1.5976 3.5742-3.5742 3.5742m-20.547 0c-1.9727 0-3.5742-1.6055-3.5742-3.5742 0-1.9727 1.6016-3.5742 3.5742-3.5742 1.9688 0 3.5703 1.6016 3.5703 3.5742 0 1.9688-1.6016 3.5742-3.5703 3.5742"/>
     <path d="m-63.51 610.25c-1.9727 0-3.5703-1.6016-3.5703-3.5703 0-1.9766 1.5977-3.5742 3.5703-3.5742 1.9844 0 3.5742 1.5977 3.5742 3.5742 0 1.9688-1.5898 3.5703-3.5742 3.5703m-20.539 0c-1.9688 0-3.5703-1.6016-3.5703-3.5703 0-1.9766 1.6016-3.5742 3.5703-3.5742 1.9727 0 3.5742 1.5977 3.5742 3.5742 0 1.9688-1.6016 3.5703-3.5742 3.5703m-20.535 0c-1.9727 0-3.5742-1.6016-3.5742-3.5703 0-1.9766 1.6016-3.5742 3.5742-3.5742s3.5703 1.5977 3.5703 3.5742c0 1.9688-1.5976 3.5703-3.5703 3.5703m-20.551 0c-1.9727 0-3.5742-1.6016-3.5742-3.5703 0-1.9766 1.6016-3.5742 3.5742-3.5742 1.9726 0 3.5703 1.5977 3.5703 3.5742 0 1.9688-1.5977 3.5703-3.5703 3.5703m-20.539 0c-1.9727 0-3.5703-1.6016-3.5703-3.5703 0-1.9766 1.5977-3.5742 3.5703-3.5742 1.9726 0 3.5742 1.5977 3.5742 3.5742 0 1.9688-1.6016 3.5703-3.5742 3.5703m-20.539 0c-1.9688 0-3.5703-1.6016-3.5703-3.5703 0-1.9766 1.6016-3.5742 3.5703-3.5742 1.9766 0 3.5625 1.5977 3.5625 3.5742 0 1.9688-1.5859 3.5703-3.5625 3.5703m-20.547 0c-1.9727 0-3.5742-1.6016-3.5742-3.5703 0-1.9766 1.6016-3.5742 3.5742-3.5742 1.9688 0 3.5703 1.5977 3.5703 3.5742 0 1.9688-1.6016 3.5703-3.5703 3.5703m-20.539 0c-1.9727 0-3.5742-1.6016-3.5742-3.5703 0-1.9766 1.6016-3.5742 3.5742-3.5742 1.9726 0 3.5703 1.5977 3.5703 3.5742 0 1.9688-1.5977 3.5703-3.5703 3.5703"/>
     <path d="m-84.049 595.6c-1.9688 0-3.5703-1.6016-3.5703-3.5703 0-1.9727 1.6016-3.5742 3.5703-3.5742 1.9727 0 3.5742 1.6016 3.5742 3.5742 0 1.9688-1.6016 3.5703-3.5742 3.5703m-20.535 0c-1.9727 0-3.5742-1.6016-3.5742-3.5703 0-1.9727 1.6016-3.5742 3.5742-3.5742s3.5703 1.6016 3.5703 3.5742c0 1.9688-1.5976 3.5703-3.5703 3.5703m-20.551 0c-1.9727 0-3.5742-1.6016-3.5742-3.5703 0-1.9727 1.6016-3.5742 3.5742-3.5742 1.9726 0 3.5703 1.6016 3.5703 3.5742 0 1.9688-1.5977 3.5703-3.5703 3.5703m-20.539 0c-1.9727 0-3.5703-1.6016-3.5703-3.5703 0-1.9727 1.5977-3.5742 3.5703-3.5742 1.9726 0 3.5742 1.6016 3.5742 3.5742 0 1.9688-1.6016 3.5703-3.5742 3.5703m-20.539 0c-1.9688 0-3.5703-1.6016-3.5703-3.5703 0-1.9727 1.6016-3.5742 3.5703-3.5742 1.9766 0 3.5625 1.6016 3.5625 3.5742 0 1.9688-1.5859 3.5703-3.5625 3.5703m-20.547 0c-1.9727 0-3.5742-1.6016-3.5742-3.5703 0-1.9727 1.6016-3.5742 3.5742-3.5742 1.9688 0 3.5703 1.6016 3.5703 3.5742 0 1.9688-1.6016 3.5703-3.5703 3.5703m-20.539 0c-1.9727 0-3.5742-1.6016-3.5742-3.5703 0-1.9727 1.6016-3.5742 3.5742-3.5742 1.9726 0 3.5703 1.6016 3.5703 3.5742 0 1.9688-1.5977 3.5703-3.5703 3.5703"/>
     <path d="m-227.85 595.6c-0.92968 0-1.8594-0.38672-2.5156-1.043-0.67188-0.67187-1.0586-1.5859-1.0586-2.5273 0-0.94531 0.38671-1.8594 1.0586-2.5352 0.65625-0.65625 1.5859-1.0391 2.5156-1.0391 0.94141 0 1.8711 0.38281 2.5312 1.0391 1.3281 1.332 1.3281 3.7344 0 5.0625-0.66015 0.65625-1.5898 1.043-2.5312 1.043"/>
     <path d="m-104.58 580.95c-1.9727 0-3.5742-1.6016-3.5742-3.5703 0-1.9766 1.6016-3.5742 3.5742-3.5742s3.5703 1.5977 3.5703 3.5742c0 1.9688-1.5976 3.5703-3.5703 3.5703m-20.551 0c-1.9727 0-3.5742-1.6016-3.5742-3.5703 0-1.9766 1.6016-3.5742 3.5742-3.5742 1.9726 0 3.5703 1.5977 3.5703 3.5742 0 1.9688-1.5977 3.5703-3.5703 3.5703m-20.539 0c-1.9727 0-3.5703-1.6016-3.5703-3.5703 0-1.9766 1.5977-3.5742 3.5703-3.5742 1.9726 0 3.5742 1.5977 3.5742 3.5742 0 1.9688-1.6016 3.5703-3.5742 3.5703m-20.539 0c-1.9688 0-3.5703-1.6016-3.5703-3.5703 0-1.9766 1.6016-3.5742 3.5703-3.5742 1.9766 0 3.5625 1.5977 3.5625 3.5742 0 1.9688-1.5859 3.5703-3.5625 3.5703m-20.547 0c-1.9727 0-3.5742-1.6016-3.5742-3.5703 0-1.9766 1.6016-3.5742 3.5742-3.5742 1.9688 0 3.5703 1.5977 3.5703 3.5742 0 1.9688-1.6016 3.5703-3.5703 3.5703m-20.539 0c-1.9727 0-3.5742-1.6016-3.5742-3.5703 0-1.9766 1.6016-3.5742 3.5742-3.5742 1.9726 0 3.5703 1.5977 3.5703 3.5742 0 1.9688-1.5977 3.5703-3.5703 3.5703"/>
     <path d="m-227.85 580.95c-0.92968 0-1.8594-0.38672-2.5156-1.043-0.67188-0.67188-1.0586-1.5859-1.0586-2.5274 0-0.94531 0.38671-1.8594 1.0586-2.5352 0.65625-0.65235 1.5859-1.0391 2.5156-1.0391 0.94141 0 1.8711 0.38672 2.5312 1.0391 1.3281 1.332 1.3281 3.7344 0 5.0625-0.66015 0.65625-1.5898 1.043-2.5312 1.043"/>
     <path d="m322.11 436.57c-1.957 0-3.5742-1.6016-3.5742-3.5742 0-1.9726 1.6172-3.5703 3.5742-3.5703 1.9727 0 3.5742 1.5977 3.5742 3.5703 0 1.9727-1.6016 3.5742-3.5742 3.5742m-20.539 0c-1.9688 0-3.5703-1.6016-3.5703-3.5742 0-1.9726 1.6016-3.5703 3.5703-3.5703 1.9727 0 3.5742 1.5977 3.5742 3.5703 0 1.9727-1.6016 3.5742-3.5742 3.5742m-20.535 0c-1.9726 0-3.5742-1.6016-3.5742-3.5742 0-1.9726 1.6016-3.5703 3.5742-3.5703 1.9727 0 3.5703 1.5977 3.5703 3.5703 0 1.9727-1.5977 3.5742-3.5703 3.5742m-20.551 0c-1.9726 0-3.5742-1.6016-3.5742-3.5742 0-1.9726 1.6016-3.5703 3.5742-3.5703 1.9688 0 3.5703 1.5977 3.5703 3.5703 0 1.9727-1.6016 3.5742-3.5703 3.5742m-20.539 0c-1.9727 0-3.5742-1.6016-3.5742-3.5742 0-1.9726 1.6016-3.5703 3.5742-3.5703s3.5742 1.5977 3.5742 3.5703c0 1.9727-1.6016 3.5742-3.5742 3.5742m-20.551 0c-1.9727 0-3.5742-1.6016-3.5742-3.5742 0-1.9726 1.6016-3.5703 3.5742-3.5703 1.9844 0 3.5859 1.5977 3.5859 3.5703 0 1.9727-1.6016 3.5742-3.5859 3.5742"/>
     <path d="m300.6 418.27c-1.9726 0-3.5742-1.6016-3.5742-3.5703 0-1.9766 1.6016-3.5742 3.5742-3.5742 1.9727 0 3.5742 1.5977 3.5742 3.5742 0 1.9688-1.6016 3.5703-3.5742 3.5703m-20.539 0c-1.9688 0-3.5703-1.6016-3.5703-3.5703 0-1.9766 1.6016-3.5742 3.5703-3.5742 1.9727 0 3.5742 1.5977 3.5742 3.5742 0 1.9688-1.6016 3.5703-3.5742 3.5703m-20.535 0c-1.9726 0-3.5742-1.6016-3.5742-3.5703 0-1.9766 1.6016-3.5742 3.5742-3.5742 1.9727 0 3.5703 1.5977 3.5703 3.5742 0 1.9688-1.5977 3.5703-3.5703 3.5703m-20.551 0c-1.9726 0-3.5742-1.6016-3.5742-3.5703 0-1.9766 1.6016-3.5742 3.5742-3.5742 1.9688 0 3.5703 1.5977 3.5703 3.5742 0 1.9688-1.6016 3.5703-3.5703 3.5703m-20.539 0c-1.9727 0-3.5742-1.6016-3.5742-3.5703 0-1.9766 1.6016-3.5742 3.5742-3.5742s3.5742 1.5977 3.5742 3.5742c0 1.9688-1.6016 3.5703-3.5742 3.5703m-20.535 0c-1.9726 0-3.5742-1.6016-3.5742-3.5703 0-1.9766 1.6016-3.5742 3.5742-3.5742 1.9688 0 3.5703 1.5977 3.5703 3.5742 0 1.9688-1.6016 3.5703-3.5703 3.5703m-20.555 0c-1.9688 0-3.5703-1.6016-3.5703-3.5703 0-1.9766 1.6016-3.5742 3.5703-3.5742 1.9726 0 3.5742 1.5977 3.5742 3.5742 0 1.9688-1.6016 3.5703-3.5742 3.5703"/>
     <path d="m272.87 401.87c-1.9726 0-3.5742-1.6016-3.5742-3.5742 0-1.9727 1.6016-3.5742 3.5742-3.5742 1.9844 0 3.5742 1.6016 3.5742 3.5742 0 1.9726-1.5898 3.5742-3.5742 3.5742m-20.539 0c-1.9688 0-3.5703-1.6016-3.5703-3.5742 0-1.9727 1.6016-3.5742 3.5703-3.5742 1.9727 0 3.5742 1.6016 3.5742 3.5742 0 1.9726-1.6016 3.5742-3.5742 3.5742m-20.535 0c-1.9726 0-3.5742-1.6016-3.5742-3.5742 0-1.9727 1.6016-3.5742 3.5742-3.5742 1.9727 0 3.5703 1.6016 3.5703 3.5742 0 1.9726-1.5977 3.5742-3.5703 3.5742m-20.551 0c-1.9726 0-3.5742-1.6016-3.5742-3.5742 0-1.9727 1.6016-3.5742 3.5742-3.5742 1.9688 0 3.5703 1.6016 3.5703 3.5742 0 1.9726-1.6016 3.5742-3.5703 3.5742m-20.539 0c-1.9727 0-3.5742-1.6016-3.5742-3.5742 0-1.9727 1.6016-3.5742 3.5742-3.5742s3.5742 1.6016 3.5742 3.5742c0 1.9726-1.6016 3.5742-3.5742 3.5742m-20.535 0c-1.9726 0-3.5742-1.6016-3.5742-3.5742 0-1.9727 1.6016-3.5742 3.5742-3.5742 1.9688 0 3.5586 1.6016 3.5586 3.5742 0 1.9726-1.5898 3.5742-3.5586 3.5742m-20.555 0c-1.9688 0-3.5703-1.6016-3.5703-3.5742 0-1.9727 1.6016-3.5742 3.5703-3.5742 1.9726 0 3.5742 1.6016 3.5742 3.5742 0 1.9726-1.6016 3.5742-3.5742 3.5742"/>
     <path d="m251.39 384.11c-1.9688 0-3.5703-1.6016-3.5703-3.5742s1.6016-3.5703 3.5703-3.5703c1.9727 0 3.5742 1.5976 3.5742 3.5703s-1.6016 3.5742-3.5742 3.5742m-20.535 0c-1.9726 0-3.5742-1.6016-3.5742-3.5742s1.6016-3.5703 3.5742-3.5703c1.9727 0 3.5703 1.5976 3.5703 3.5703s-1.5977 3.5742-3.5703 3.5742m-20.551 0c-1.9726 0-3.5742-1.6016-3.5742-3.5742s1.6016-3.5703 3.5742-3.5703c1.9688 0 3.5703 1.5976 3.5703 3.5703s-1.6016 3.5742-3.5703 3.5742m-20.539 0c-1.9727 0-3.5742-1.6016-3.5742-3.5742s1.6016-3.5703 3.5742-3.5703 3.5742 1.5976 3.5742 3.5703-1.6016 3.5742-3.5742 3.5742m-20.535 0c-1.9726 0-3.5742-1.6016-3.5742-3.5742s1.6016-3.5703 3.5742-3.5703c1.9688 0 3.5586 1.5976 3.5586 3.5703s-1.5898 3.5742-3.5586 3.5742m-20.555 0c-1.9688 0-3.5703-1.6016-3.5703-3.5742s1.6016-3.5703 3.5703-3.5703c1.9726 0 3.5742 1.5976 3.5742 3.5703s-1.6016 3.5742-3.5742 3.5742m-20.535 0c-1.9727 0-3.5742-1.6016-3.5742-3.5742s1.6016-3.5703 3.5742-3.5703 3.5703 1.5976 3.5703 3.5703-1.5976 3.5742-3.5703 3.5742"/>
     <path d="m225.84 364.18c-1.9726 0-3.5742-1.6055-3.5742-3.5742 0-1.9726 1.6016-3.5742 3.5742-3.5742 1.9727 0 3.5703 1.6016 3.5703 3.5742 0 1.9688-1.5977 3.5742-3.5703 3.5742m-20.551 0c-1.9726 0-3.5742-1.6055-3.5742-3.5742 0-1.9726 1.6016-3.5742 3.5742-3.5742 1.9688 0 3.5703 1.6016 3.5703 3.5742 0 1.9688-1.6016 3.5742-3.5703 3.5742m-20.539 0c-1.9727 0-3.5742-1.6055-3.5742-3.5742 0-1.9726 1.6016-3.5742 3.5742-3.5742s3.5742 1.6016 3.5742 3.5742c0 1.9688-1.6016 3.5742-3.5742 3.5742m-20.535 0c-1.9726 0-3.5742-1.6055-3.5742-3.5742 0-1.9726 1.6016-3.5742 3.5742-3.5742 1.9688 0 3.5586 1.6016 3.5586 3.5742 0 1.9688-1.5898 3.5742-3.5586 3.5742m-20.555 0c-1.9688 0-3.5703-1.6055-3.5703-3.5742 0-1.9726 1.6016-3.5742 3.5703-3.5742 1.9726 0 3.5742 1.6016 3.5742 3.5742 0 1.9688-1.6016 3.5742-3.5742 3.5742m-20.535 0c-1.9727 0-3.5742-1.6055-3.5742-3.5742 0-1.9726 1.6016-3.5742 3.5742-3.5742s3.5703 1.6016 3.5703 3.5742c0 1.9688-1.5976 3.5742-3.5703 3.5742"/>
     <path d="m102.58 364.18c-0.92969 0-1.8594-0.39062-2.5156-1.043-0.67187-0.67578-1.0586-1.5859-1.0586-2.5312s0.38672-1.8594 1.0586-2.5312c0.65625-0.65625 1.5859-1.043 2.5156-1.043 0.9414 0 1.8711 0.38672 2.5273 1.043 1.332 1.332 1.332 3.7305 0 5.0625-0.65625 0.65235-1.5859 1.043-2.5273 1.043"/>
    </g>
    <g fill="#cfdadd">
     <path d="m-303.64 189.92c-103.99 0-188.59 84.602-188.59 188.59 0 103.99 84.602 188.59 188.59 188.59 103.99 0 188.59-84.602 188.59-188.59 0-103.99-84.602-188.59-188.59-188.59zm0 381.87c-106.57 0-193.28-86.703-193.28-193.28s86.703-193.28 193.28-193.28c106.57 0 193.27 86.703 193.27 193.28s-86.703 193.28-193.27 193.28" stroke="#abe6d2"/>
     <path d="m-303.64 176.45c-111.42 0-202.06 90.645-202.06 202.06s90.645 202.06 202.06 202.06c111.41 0 202.06-90.645 202.06-202.06s-90.645-202.06-202.06-202.06zm0 421.7c-121.11 0-219.63-98.527-219.63-219.63s98.523-219.63 219.63-219.63c121.1 0 219.63 98.527 219.63 219.63s-98.531 219.63-219.63 219.63" stroke="#c2ec98"/>
     <path d="m-303.64 120.45c-142.3 0-258.06 115.77-258.06 258.06s115.76 258.05 258.06 258.05c142.29 0 258.05-115.76 258.05-258.05s-115.77-258.06-258.05-258.06zm0 517.75c-143.2 0-259.7-116.5-259.7-259.69 0-143.2 116.5-259.69 259.7-259.69 143.19 0 259.69 116.5 259.69 259.69 0 143.19-116.5 259.69-259.69 259.69"/>
     <path d="m-303.64 195.47c-100.93 0-183.04 82.109-183.04 183.04 0 100.92 82.109 183.03 183.04 183.03 100.92 0 183.03-82.109 183.03-183.03 0-100.93-82.109-183.04-183.03-183.04zm0 367.7c-101.83 0-184.67-82.844-184.67-184.67 0-101.83 82.84-184.67 184.67-184.67 101.82 0 184.66 82.84 184.66 184.67 0 101.82-82.84 184.67-184.66 184.67"/>
     <path d="m-459.08 378.51c0-85.844 69.59-155.43 155.43-155.43s155.43 69.586 155.43 155.43c0 85.84-69.586 155.43-155.43 155.43s-155.43-69.59-155.43-155.43" stroke="#ecbd98"/>
    </g>
    <path d="m-443.55 379.12c0-77.27 62.637-139.91 139.91-139.91 77.266 0 139.91 62.637 139.91 139.91 0 77.27-62.641 139.9-139.91 139.9-77.27 0-139.91-62.633-139.91-139.9" fill="#e0ebee" stroke="#b7ec98"/>
    <g fill="#cfdadd">
     <path d="m-412.08 378.51c0-59.891 48.551-108.44 108.44-108.44 59.891 0 108.44 48.551 108.44 108.44 0 59.891-48.547 108.44-108.44 108.44-59.891 0-108.44-48.551-108.44-108.44" stroke="#98c8ec"/>
     <path d="m-115.78 200.27c-2.6602 2.6602-6.9688 2.6562-9.6289 0-2.6602-2.6602-2.6602-6.9766 0-9.6328 2.6602-2.6602 6.9688-2.6602 9.6289 0 2.6602 2.6562 2.6602 6.9726 0 9.6328"/>
     <path d="m-125.41 566.38c-2.6602-2.6602-2.6602-6.9727 0-9.6328 2.6602-2.6602 6.9688-2.6602 9.6289 0 2.6602 2.6602 2.6602 6.9726 0 9.6328-2.6602 2.6602-6.9688 2.6602-9.6289 0"/>
     <path d="m-279.72 625.23-1.7656-16.801 3.9805-0.41797 1.7656 16.801-3.9805 0.41797"/>
     <path d="m-271.13 624.24-2.3516-16.73 3.9609-0.55469 2.3516 16.727-3.9609 0.5586"/>
     <path d="m-262.57 622.96-2.9336-16.637 3.9414-0.6914 2.9297 16.637-3.9375 0.6914"/>
     <path d="m-254.06 621.38-3.5156-16.523 3.9102-0.83203 3.5156 16.523-3.9102 0.83203"/>
     <path d="m-245.62 619.5-4.0859-16.391 3.8789-0.96875 4.0898 16.391-3.8828 0.96875"/>
     <path d="m-237.24 617.33-4.6602-16.242 3.8438-1.1016 4.6602 16.238-3.8438 1.1055"/>
     <path d="m-228.95 614.86-5.2188-16.066 3.8047-1.2383 5.2188 16.066-3.8047 1.2383"/>
     <path d="m-220.74 612.11-5.7812-15.875 3.7578-1.3711 5.7812 15.875-3.7578 1.3711"/>
     <path d="m-212.64 609.08-6.332-15.664 3.7109-1.5 6.332 15.664-3.7109 1.5"/>
     <path d="m-204.65 605.76-6.8711-15.434 3.6523-1.6289 6.875 15.438-3.6562 1.625"/>
     <path d="m-196.78 602.17-7.4062-15.184 3.5938-1.7539 7.4062 15.184-3.5938 1.7539"/>
     <path d="m-189.04 598.3-7.9375-14.918 3.5312-1.8789 7.9375 14.918-3.5312 1.8789"/>
     <path d="m-181.44 594.17-8.4492-14.633 3.4648-2 8.4492 14.633-3.4648 2"/>
     <path d="m-173.99 589.77-8.957-14.332 3.3906-2.1172 8.957 14.332-3.3906 2.1172"/>
     <path d="m-166.69 585.12-9.4492-14.008 3.3164-2.2344 9.4492 14.008-3.3164 2.2344"/>
     <path d="m-159.56 580.22-9.9336-13.672 3.2383-2.3516 9.9297 13.672-3.2344 2.3516"/>
     <path d="m-152.62 575.06-10.402-13.312 3.1523-2.4648 10.402 13.316-3.1523 2.4609"/>
     <path d="m-145.85 569.67-10.863-12.945 3.0625-2.5703 10.867 12.941-3.0664 2.5742"/>
     <path d="m-139.27 564.05-11.309-12.555 2.9727-2.6797 11.309 12.559-2.9726 2.6758"/>
     <path d="m-132.9 558.2-11.738-12.152 2.8789-2.7773 11.738 12.152-2.8789 2.7773"/>
     <path d="m-126.73 552.13-12.152-11.73 2.7774-2.8789 12.152 11.734-2.7773 2.875"/>
     <path d="m-120.78 545.85-12.555-11.309 2.6758-2.9727 12.555 11.309-2.6758 2.9726"/>
     <path d="m-115.04 539.36-12.949-10.859 2.5703-3.0625 12.949 10.859-2.5703 3.0625"/>
     <path d="m-109.54 532.69-13.32-10.402 2.4609-3.1523 13.32 10.402-2.4609 3.1523"/>
     <path d="m-104.29 525.82-13.672-9.9297 2.3516-3.2383 13.672 9.9297-2.3516 3.2383"/>
     <path d="m-99.267 518.77-14.008-9.4453 2.2383-3.3164 14.008 9.4453-2.2383 3.3164"/>
     <path d="m-94.494 511.55-14.332-8.9492 2.1211-3.3945 14.332 8.9531-2.1211 3.3906"/>
     <path d="m-89.978 504.17-14.637-8.4453 2-3.4648 14.637 8.4453-2 3.4648"/>
     <path d="m-85.728 496.64-14.918-7.9336 1.8789-3.5312 14.918 7.9336-1.8789 3.5312"/>
     <path d="m-81.736 488.96-15.184-7.4062 1.7539-3.5938 15.184 7.4023-1.7539 3.5977"/>
     <path d="m-78.014 481.15-15.434-6.8711 1.625-3.6523 15.438 6.8672-1.6289 3.6562"/>
     <path d="m-74.572 473.21-15.664-6.332 1.5-3.707 15.664 6.332-1.5 3.707"/>
     <path d="m-71.404 465.16-15.875-5.7773 1.3672-3.7578 15.875 5.7812-1.3672 3.7539"/>
     <path d="m-68.521 457-16.07-5.2188 1.2383-3.8047 16.07 5.2188-1.2383 3.8047"/>
     <path d="m-65.928 448.75-16.242-4.6562 1.1055-3.8438 16.242 4.6562-1.1055 3.8438"/>
     <path d="m-63.619 440.41-16.391-4.0898 0.96484-3.8789 16.395 4.0898-0.96875 3.8789"/>
     <path d="m-61.603 431.99-16.527-3.5117 0.83203-3.9102 16.527 3.5117-0.83203 3.9102"/>
     <path d="m-59.885 423.51-16.641-2.9336 0.69531-3.9375 16.641 2.9336-0.69531 3.9375"/>
     <path d="m-58.463 414.98-16.73-2.3516 0.55469-3.9609 16.734 2.3516-0.55859 3.9609"/>
     <path d="m-57.338 406.4-16.805-1.7695 0.41797-3.9766 16.805 1.7656-0.41797 3.9805"/>
     <path d="m-56.517 397.79-16.852-1.1797 0.27734-3.9883 16.855 1.1758-0.28125 3.9922"/>
     <path d="m-55.99 389.15-16.891-0.58984 0.14062-3.9961 16.887 0.58593-0.13672 4"/>
     <path d="m-72.67 380.51v-4l16.898-4e-3v4l-16.898 4e-3"/>
     <path d="m-72.74 372.44-0.14062-4 16.891-0.58985 0.13672 3.9961-16.887 0.59375"/>
     <path d="m-73.092 364.39-0.28125-3.9922 16.855-1.1797 0.28125 3.9883-16.855 1.1836"/>
     <path d="m-73.728 356.35-0.41797-3.9766 16.805-1.7695 0.42187 3.9766-16.809 1.7695"/>
     <path d="m-74.642 348.34-0.55469-3.9609 16.734-2.3516 0.55859 3.9609-16.738 2.3516"/>
     <path d="m-75.834 340.36-0.69531-3.9375 16.641-2.9375 0.69531 3.9414-16.641 2.9336"/>
     <path d="m-77.303 332.44-0.83203-3.9102 16.531-3.5195 0.83203 3.9141-16.531 3.5156"/>
     <path d="m-79.045 324.57-0.96875-3.8828 16.395-4.0898 0.96875 3.8828-16.395 4.0898"/>
     <path d="m-81.068 316.76-1.1016-3.8477 16.242-4.6562 1.1055 3.8438-16.246 4.6602"/>
     <path d="m-83.357 309.03-1.2383-3.8047 16.07-5.2226 1.2383 3.8047-16.07 5.2227"/>
     <path d="m-85.916 301.38-1.3672-3.7578 15.875-5.7773 1.3672 3.7578-15.875 5.7773"/>
     <path d="m-88.74 293.83-1.5-3.707 15.668-6.332 1.4961 3.7109-15.664 6.3281"/>
     <path d="m-91.826 286.38-1.625-3.6523 15.434-6.875 1.6289 3.6523-15.438 6.875"/>
     <path d="m-95.17 279.05-1.7539-3.5976 15.184-7.4062 1.7539 3.5938-15.184 7.4102"/>
     <path d="m-98.767 271.83-1.8789-3.5312 14.918-7.9336 1.8789 3.5312-14.918 7.9336"/>
     <path d="m-102.62 264.75-2-3.4648 14.637-8.4531 2 3.4648-14.637 8.4531"/>
     <path d="m-106.71 257.81-2.1211-3.3945 14.332-8.957 2.1211 3.3945-14.332 8.957"/>
     <path d="m-111.04 251.01-2.2383-3.3164 14.008-9.4531 2.2383 3.3164-14.008 9.4531"/>
     <path d="m-115.61 244.36-2.3516-3.2383 13.672-9.9336 2.3516 3.2344-13.672 9.9375"/>
     <path d="m-120.4 237.88-2.4648-3.1523 13.316-10.402 2.4609 3.1524-13.312 10.402"/>
     <path d="m-125.43 231.57-2.5703-3.0625 12.945-10.863 2.5742 3.0625-12.949 10.863"/>
     <path d="m-130.66 225.44-2.6758-2.9727 12.555-11.309 2.6797 2.9727-12.559 11.309"/>
     <path d="m-136.11 219.49-2.7812-2.8789 12.156-11.734 2.7774 2.875-12.152 11.738"/>
     <path d="m-141.76 213.74-2.8789-2.7774 11.738-12.156 2.875 2.7774-11.734 12.156"/>
     <path d="m-147.61 208.19-2.9726-2.6758 11.301-12.559 2.9726 2.6758-11.301 12.559"/>
     <path d="m-153.65 202.85-3.0664-2.5703 10.859-12.945 3.0664 2.5703-10.859 12.945"/>
     <path d="m-159.87 197.73-3.1524-2.4648 10.406-13.316 3.1524 2.4648-10.406 13.316"/>
     <path d="m-166.27 192.82-3.2383-2.3516 9.9336-13.672 3.2344 2.3516-9.9297 13.672"/>
     <path d="m-172.83 188.14-3.3164-2.2344 9.4453-14.012 3.3164 2.2344-9.4453 14.012"/>
     <path d="m-179.55 183.69-3.3906-2.1172 8.9492-14.336 3.3906 2.1211-8.9492 14.332"/>
     <path d="m-186.43 179.47-3.4648-2 8.4453-14.637 3.4648 2-8.4453 14.637"/>
     <path d="m-193.44 175.51-3.5352-1.875 7.9297-14.922 3.5352 1.875-7.9297 14.922"/>
    </g>
    <g fill="#aeb5b6">
     <path d="m405.3 470.18h-6.2539l-9.4336-9.7891h6.25l9.4375 9.7891"/>
     <path d="m417.08 470.18h-6.25l-9.4375-9.7891h6.2539l9.4336 9.7891"/>
     <path d="m428.87 470.18h-6.25l-9.4375-9.7891h6.2539l9.4336 9.7891"/>
     <path d="m440.65 470.18h-6.2539l-9.4336-9.7891h6.2539l9.4336 9.7891"/>
     <path d="m452.44 470.18h-6.2539l-9.4336-9.7891h6.25l9.4375 9.7891"/>
     <path d="m464.22 470.18h-6.2539l-9.4336-9.7891h6.25l9.4375 9.7891"/>
     <path d="m476.01 470.18h-6.2539l-9.4336-9.7891h6.25l9.4375 9.7891"/>
    </g>
    <path d="m489 369.65h-217.32l-56.219-56.219h-124.5l-59.5-59.5h-83.293c-0.27344 0-0.5-0.22265-0.5-0.5 0-0.27734 0.22656-0.5 0.5-0.5h83.707l59.5 59.5h124.5l56.219 56.219h216.91c0.27734 0 0.5 0.22266 0.5 0.5 0 0.27344-0.22266 0.5-0.5 0.5" fill="#cfdadd"/>
    <g fill="#aeb5b6">
     <path d="m46.541 316.64h-247.54c-0.27735 0-0.5-0.22656-0.5-0.5 0-0.27734 0.22265-0.5 0.5-0.5h247.12l70.711-70.711h91.137l52.566 52.566h54.918l135.14-135.14c0.19531-0.19531 0.51172-0.19531 0.70703 0s0.19531 0.51172 0 0.70703l-135.43 135.43h-55.746l-52.566-52.566h-90.309l-70.711 70.711"/>
     <path d="m489 476.49h-189.05l-143.2-143.2h-94.645l-60.355-60.355h-173.09c-0.55078 0-1-0.44531-1-1 0-0.55078 0.44922-1 1-1h173.91l60.355 60.355h94.645l143.2 143.2h188.22c0.55469 0 1 0.44921 1 1 0 0.55468-0.44531 1-1 1"/>
     <path d="m300.45 447.6h-158.99l-114.17-114.17h-160.62c-0.27344 0-0.5-0.22265-0.5-0.5 0-0.27734 0.22656-0.5 0.5-0.5h161.04l114.17 114.17h158.16l110.98-110.98h102.36c0.27734 0 0.5 0.22265 0.5 0.5 0 0.27734-0.22266 0.5-0.5 0.5h-101.95l-110.98 110.98"/>
    </g>
    <path d="m-36.795 295.26h-60.039c-0.27734 0-0.5-0.22265-0.5-0.5 0-0.27343 0.22266-0.5 0.5-0.5h59.629l63-62.996h106.75l43.5 43.496h104.09l114.94-114.94c0.19531-0.19531 0.51172-0.19531 0.70703 0 0.19531 0.19922 0.19531 0.51172 0 0.71094l-115.23 115.23h-104.91l-43.5-43.496h-105.92l-63 62.996" fill="#cfdadd"/>
    <g fill="#aeb5b6">
     <path d="m327.87 504.9h-73.387l-121.65-121.66h-153.19l-36.188-36.184h-149.79c-0.27734 0-0.5-0.22656-0.5-0.5 0-0.27734 0.22266-0.5 0.5-0.5h150.21l36.188 36.184h153.19l121.65 121.66h72.559l75.988-75.988h85.551c0.27734 0 0.5 0.22266 0.5 0.5 0 0.27735-0.22266 0.5-0.5 0.5h-85.137l-75.988 75.988"/>
     <path d="m-50.588 236.43h-78.746c-0.55078 0-1-0.44922-1-1s0.44922-1 1-1h77.922l44.664-44.664h170.67l33.664-33.668c0.39062-0.39062 1.0234-0.39062 1.4141 0 0.39063 0.39063 0.39063 1.0234 0 1.4141l-34.25 34.254h-170.67l-44.668 44.664"/>
     <path d="m-293.67 411.26c-0.25781 0-0.51172-0.0977-0.70703-0.29297-0.39063-0.39062-0.39063-1.0234 0-1.4141l54.094-54.094h170.78l47.078 47.078h85.254c0.55078 0 1 0.44922 1 1s-0.44922 1-1 1h-86.082l-47.078-47.078h-169.13l-53.508 53.508c-0.19531 0.19531-0.45313 0.29297-0.70703 0.29297"/>
     <path d="m-81.834 253.93h-73.707l-40.582-40.582h-97.543c-0.27735 0-0.5-0.22656-0.5-0.5 0-0.27734 0.22265-0.5 0.5-0.5h97.957l40.582 40.582h73.293c0.27734 0 0.5 0.22266 0.5 0.5 0 0.27735-0.22266 0.5-0.5 0.5"/>
     <path d="m-129.33 295.26h-54.207l-52.918-52.914h-65.875c-0.27734 0-0.5-0.22656-0.5-0.5 0-0.27734 0.22266-0.5 0.5-0.5h66.289l52.918 52.914h53.793c0.27734 0 0.5 0.22657 0.5 0.5 0 0.27735-0.22266 0.5-0.5 0.5"/>
     <path d="m-200.45 316.55c-0.12891 0-0.25391-0.0508-0.35156-0.14844l-46.332-46.332h-55.203c-0.27734 0-0.5-0.22266-0.5-0.5 0-0.27735 0.22266-0.5 0.5-0.5h55.613l46.629 46.625c0.19531 0.19531 0.19531 0.51172 0 0.70703-0.0977 0.0976-0.22657 0.14844-0.35547 0.14844"/>
     <path d="m352.86 333.93h-69.945c-0.55078 0-1-0.44922-1-1s0.44922-1 1-1h69.117l59.027-59.027h30.711c0.55469 0 1 0.44922 1 1 0 0.55469-0.44531 1-1 1h-29.883l-59.027 59.027"/>
    </g>
    <g fill="#cfdadd">
     <path d="m327.67 498.32c-3.3555 0-6.082 2.7305-6.082 6.0859 0 3.3516 2.7266 6.082 6.082 6.082s6.082-2.7305 6.082-6.082c0-3.3555-2.7266-6.0859-6.082-6.0859zm0 13.168c-3.9062 0-7.082-3.1797-7.082-7.082 0-3.9062 3.1758-7.0859 7.082-7.0859s7.082 3.1797 7.082 7.0859c0 3.9024-3.1758 7.082-7.082 7.082"/>
     <path d="m332.28 504.4c0 2.543-2.0664 4.6094-4.6133 4.6094-2.5469 0-4.6133-2.0664-4.6133-4.6094 0-2.5469 2.0664-4.6133 4.6133-4.6133 2.5469 0 4.6133 2.0664 4.6133 4.6133"/>
     <path d="m271.71 363.06c-3.3555 0-6.082 2.7266-6.082 6.082 0 3.3516 2.7266 6.082 6.082 6.082s6.082-2.7305 6.082-6.082c0-3.3555-2.7266-6.082-6.082-6.082zm0 13.164c-3.9062 0-7.082-3.1758-7.082-7.082s3.1758-7.082 7.082-7.082 7.082 3.1758 7.082 7.082-3.1758 7.082-7.082 7.082"/>
     <path d="m276.32 369.15c0 2.5469-2.0664 4.6133-4.6133 4.6133-2.5469 0-4.6133-2.0664-4.6133-4.6133 0-2.5469 2.0664-4.6133 4.6133-4.6133 2.5469 0 4.6133 2.0664 4.6133 4.6133"/>
     <path d="m275.75 326.85c-3.3555 0-6.0859 2.7266-6.0859 6.082s2.7305 6.082 6.0859 6.082c3.3516 0 6.082-2.7266 6.082-6.082s-2.7305-6.082-6.082-6.082zm0 13.164c-3.9062 0-7.0859-3.1758-7.0859-7.082s3.1797-7.082 7.0859-7.082c3.9023 0 7.082 3.1758 7.082 7.082s-3.1797 7.082-7.082 7.082"/>
     <path d="m280.36 332.93c0 2.5469-2.0625 4.6133-4.6094 4.6133-2.5469 0-4.6133-2.0664-4.6133-4.6133 0-2.5469 2.0664-4.6133 4.6133-4.6133 2.5469 0 4.6094 2.0664 4.6094 4.6133"/>
     <path d="m201.94 332.93c0 2.5469-2.0664 4.6133-4.6133 4.6133-2.5469 0-4.6133-2.0664-4.6133-4.6133 0-2.5469 2.0664-4.6133 4.6133-4.6133 2.5469 0 4.6133 2.0664 4.6133 4.6133"/>
     <path d="m444.6 406.24c0 2.5469-2.0625 4.6133-4.6094 4.6133-2.5469 0-4.6133-2.0664-4.6133-4.6133 0-2.5469 2.0664-4.6133 4.6133-4.6133 2.5469 0 4.6094 2.0664 4.6094 4.6133"/>
     <path d="m145.75 239.92c-3.3555 0-6.0859 2.7305-6.0859 6.082 0 3.3555 2.7305 6.0859 6.0859 6.0859 3.3516 0 6.082-2.7305 6.082-6.0859 0-3.3516-2.7305-6.082-6.082-6.082zm0 13.168c-3.9062 0-7.0859-3.1797-7.0859-7.0859 0-3.9024 3.1797-7.082 7.0859-7.082 3.9023 0 7.082 3.1797 7.082 7.082 0 3.9062-3.1797 7.0859-7.082 7.0859"/>
     <path d="m150.36 246.01c0 2.5508-2.0625 4.6133-4.6094 4.6133-2.5469 0-4.6133-2.0625-4.6133-4.6133 0-2.5469 2.0664-4.6094 4.6133-4.6094 2.5469 0 4.6094 2.0625 4.6094 4.6094"/>
    </g>
    <path d="m70.002 397.6c-3.3555 0-6.0859 2.7266-6.0859 6.082s2.7305 6.082 6.0859 6.082c3.3516 0 6.082-2.7266 6.082-6.082s-2.7305-6.082-6.082-6.082zm0 13.164c-3.9062 0-7.0859-3.1758-7.0859-7.082s3.1797-7.082 7.0859-7.082c3.9023 0 7.082 3.1758 7.082 7.082s-3.1797 7.082-7.082 7.082" fill="#aeb5b6"/>
    <path d="m74.611 403.68c0 2.5469-2.0625 4.6133-4.6094 4.6133-2.5469 0-4.6133-2.0664-4.6133-4.6133 0-2.5469 2.0664-4.6133 4.6133-4.6133 2.5469 0 4.6094 2.0664 4.6094 4.6133" fill="#aeb5b6"/>
    <path d="m-58.416 247.35c-3.3555 0-6.082 2.7266-6.082 6.082s2.7266 6.082 6.082 6.082c3.3516 0 6.082-2.7266 6.082-6.082s-2.7305-6.082-6.082-6.082zm0 13.164c-3.9062 0-7.082-3.1758-7.082-7.082s3.1758-7.082 7.082-7.082 7.082 3.1758 7.082 7.082-3.1758 7.082-7.082 7.082" fill="#cfdadd"/>
    <path d="m-53.803 253.43c0 2.5469-2.0664 4.6133-4.6133 4.6133s-4.6133-2.0664-4.6133-4.6133c0-2.5469 2.0664-4.6133 4.6133-4.6133s4.6133 2.0664 4.6133 4.6133" fill="#cfdadd"/>
    <g fill="#aeb5b6">
     <path d="m-134.49 231.45c-2.1914 0-3.9727 1.7852-3.9727 3.9766 0 2.1914 1.7812 3.9766 3.9727 3.9766s3.9766-1.7852 3.9766-3.9766c0-2.1914-1.7852-3.9766-3.9766-3.9766zm0 8.9531c-2.7422 0-4.9727-2.2344-4.9727-4.9766s2.2305-4.9766 4.9727-4.9766c2.7461 0 4.9766 2.2344 4.9766 4.9766s-2.2305 4.9766-4.9766 4.9766"/>
     <path d="m-131.35 235.43c0 1.7305-1.4062 3.1367-3.1367 3.1367s-3.1328-1.4062-3.1328-3.1367 1.4023-3.1367 3.1328-3.1367 3.1367 1.4062 3.1367 3.1367"/>
     <path d="m-236.25 237.87c-2.1914 0-3.9727 1.7852-3.9727 3.9766s1.7812 3.9727 3.9727 3.9727c2.1953 0 3.9766-1.7812 3.9766-3.9727s-1.7812-3.9766-3.9766-3.9766zm0 8.9492c-2.7422 0-4.9727-2.2305-4.9727-4.9727s2.2305-4.9766 4.9727-4.9766c2.7461 0 4.9766 2.2344 4.9766 4.9766s-2.2305 4.9727-4.9766 4.9727"/>
     <path d="m-233.12 241.85c0 1.7305-1.4023 3.1328-3.1367 3.1328-1.7305 0-3.1328-1.4023-3.1328-3.1328s1.4023-3.1367 3.1328-3.1367c1.7344 0 3.1367 1.4062 3.1367 3.1367"/>
     <path d="m-138.09 328.95c-2.1914 0-3.9766 1.7852-3.9766 3.9766 0 2.1914 1.7852 3.9766 3.9766 3.9766 2.1914 0 3.9727-1.7852 3.9727-3.9766 0-2.1914-1.7812-3.9766-3.9727-3.9766zm0 8.9531c-2.7422 0-4.9766-2.2344-4.9766-4.9766s2.2344-4.9766 4.9766-4.9766c2.7422 0 4.9727 2.2344 4.9727 4.9766s-2.2305 4.9766-4.9727 4.9766"/>
     <path d="m-134.95 332.93c0 1.7305-1.4024 3.1367-3.1328 3.1367s-3.1367-1.4062-3.1367-3.1367 1.4062-3.1367 3.1367-3.1367 3.1328 1.4062 3.1328 3.1367"/>
     <path d="m-210.81 342.59c-2.1953 0-3.9766 1.7852-3.9766 3.9766s1.7812 3.9727 3.9766 3.9727c2.1914 0 3.9727-1.7812 3.9727-3.9727s-1.7812-3.9766-3.9727-3.9766zm0 8.9492c-2.7461 0-4.9766-2.2305-4.9766-4.9727s2.2305-4.9766 4.9766-4.9766c2.7422 0 4.9727 2.2344 4.9727 4.9766s-2.2305 4.9727-4.9727 4.9727"/>
     <path d="m-207.67 346.56c0 1.7305-1.4024 3.1328-3.1328 3.1328-1.7344 0-3.1367-1.4023-3.1367-3.1328 0-1.7344 1.4024-3.1367 3.1367-3.1367 1.7305 0 3.1328 1.4024 3.1328 3.1367"/>
    </g>
    <g fill="#cfdadd">
     <path d="m9.9161 253.43c0 3.082-2.5 5.582-5.582 5.582s-5.582-2.5-5.582-5.582 2.5-5.582 5.582-5.582 5.582 2.5 5.582 5.582"/>
     <path d="m442.29 274.04c0 3.082-2.5 5.582-5.582 5.582s-5.582-2.5-5.582-5.582c0-3.0859 2.5-5.5859 5.582-5.5859s5.582 2.5 5.582 5.5859"/>
     <path d="m383.65 369.15c0 3.082-2.5 5.582-5.582 5.582s-5.582-2.5-5.582-5.582 2.5-5.582 5.582-5.582 5.582 2.5 5.582 5.582"/>
     <path d="m359.98 475.49c0 2.0156-1.6367 3.6524-3.6562 3.6524s-3.6562-1.6367-3.6562-3.6524c0-2.0234 1.6367-3.6602 3.6562-3.6602s3.6562 1.6367 3.6562 3.6602"/>
     <path d="m200.98 447.1c0 2.0195-1.6367 3.6562-3.6562 3.6562s-3.6562-1.6367-3.6562-3.6562 1.6367-3.6562 3.6562-3.6562 3.6562 1.6367 3.6562 3.6562"/>
     <path d="m243.29 275.37c0 3.082-2.5 5.582-5.582 5.582s-5.582-2.5-5.582-5.582 2.5-5.582 5.582-5.582 5.582 2.5 5.582 5.582"/>
     <path d="m301.04 276.46c0 2.1719-1.7617 3.9336-3.9336 3.9336-2.1758 0-3.9375-1.7617-3.9375-3.9336 0-2.1758 1.7617-3.9375 3.9375-3.9375 2.1719 0 3.9336 1.7617 3.9336 3.9375"/>
    </g>
    <path d="m315.1 283.47c0 2.3008-1.8672 4.1641-4.1641 4.1641-2.3008 0-4.1641-1.8633-4.1641-4.1641s1.8633-4.1641 4.1641-4.1641c2.2969 0 4.1641 1.8633 4.1641 4.1641" fill="#aeb5b6"/>
    <path d="m84.998 382.8c0 4.0469-3.2812 7.332-7.332 7.332s-7.332-3.2852-7.332-7.332c0-4.0508 3.2812-7.3359 7.332-7.3359s7.332 3.2852 7.332 7.3359" fill="#aeb5b6"/>
    <path d="m279.14 447.1c0 4.0508-3.2852 7.332-7.332 7.332-4.0508 0-7.3359-3.2812-7.3359-7.332s3.2852-7.332 7.3359-7.332c4.0469 0 7.332 3.2812 7.332 7.332" fill="#cfdadd"/>
    <path d="m49.666 316.14c0 1.8867-1.5312 3.418-3.418 3.418s-3.4141-1.5312-3.4141-3.418 1.5273-3.418 3.4141-3.418 3.418 1.5312 3.418 3.418" fill="#cfdadd"/>
    <path d="m-66.791 356.46c0 1.8867-1.5312 3.418-3.418 3.418s-3.418-1.5312-3.418-3.418 1.5312-3.418 3.418-3.418 3.418 1.5312 3.418 3.418" fill="#aeb5b6"/>
    <path d="m70.365 285.55c-3.6328 0-6.5859 2.9531-6.5859 6.5859 0 3.6289 2.9531 6.5859 6.5859 6.5859 3.6289 0 6.582-2.957 6.582-6.5859 0-3.6328-2.9531-6.5859-6.582-6.5859zm0 14.172c-4.1836 0-7.5859-3.4024-7.5859-7.5859s3.4023-7.5859 7.5859-7.5859c4.1797 0 7.582 3.4024 7.582 7.5859s-3.4023 7.5859-7.582 7.5859" fill="#cfdadd"/>
    <path d="m75.26 292.14c0 2.7031-2.1914 4.8945-4.8945 4.8945-2.707 0-4.8984-2.1914-4.8984-4.8945 0-2.7031 2.1914-4.8984 4.8984-4.8984 2.7031 0 4.8945 2.1953 4.8945 4.8984" fill="#cfdadd"/>
    <g fill="#aeb5b6">
     <path d="m-91.252 294.76c0 3.0859-2.5 5.5859-5.582 5.5859s-5.582-2.5-5.582-5.5859c0-3.082 2.5-5.582 5.582-5.582s5.582 2.5 5.582 5.582"/>
     <path d="m-123.75 294.76c0 3.0859-2.5 5.5859-5.5859 5.5859-3.082 0-5.582-2.5-5.582-5.5859 0-3.082 2.5-5.582 5.582-5.582 3.0859 0 5.5859 2.5 5.5859 5.582"/>
     <path d="m-194.87 316.05c0 3.082-2.5 5.582-5.582 5.582s-5.582-2.5-5.582-5.582c0-3.0859 2.5-5.5859 5.582-5.5859s5.582 2.5 5.582 5.5859"/>
     <path d="m-242.05 269.57c0 3.082-2.5 5.582-5.582 5.582-3.0859 0-5.5859-2.5-5.5859-5.582s2.5-5.582 5.5859-5.582c3.082 0 5.582 2.5 5.582 5.582"/>
    </g>
    <path d="m-11.916 271.93c0 1.1953-0.97266 2.168-2.168 2.168s-2.1641-0.97266-2.1641-2.168 0.96875-2.1641 2.1641-2.1641 2.168 0.96875 2.168 2.1641" fill="#cfdadd"/>
    <path d="m35.416 253.43c0 2.1172-1.7148 3.8359-3.832 3.8359-2.1172 0-3.8359-1.7188-3.8359-3.8359s1.7188-3.8359 3.8359-3.8359c2.1172 0 3.832 1.7188 3.832 3.8359" fill="#cfdadd"/>
    <path d="m-75.084 253.43c0 2.1172-1.7148 3.8359-3.832 3.8359-2.1172 0-3.8359-1.7188-3.8359-3.8359s1.7188-3.8359 3.8359-3.8359c2.1172 0 3.832 1.7188 3.832 3.8359" fill="#aeb5b6"/>
    <path d="m-167.5 271.93c0 2.1172-1.7188 3.8359-3.8359 3.8359s-3.832-1.7188-3.832-3.8359 1.7148-3.832 3.832-3.832 3.8359 1.7148 3.8359 3.832" fill="#aeb5b6"/>
    <g fill="#cfdadd">
     <path d="m249 213.35h-314c-0.27734 0-0.5-0.22656-0.5-0.5 0-0.27734 0.22266-0.5 0.5-0.5h314c0.27343 0 0.5 0.22266 0.5 0.5 0 0.27344-0.22657 0.5-0.5 0.5"/>
     <path d="m-63.998 212.85c0 2.1172-1.7188 3.832-3.8359 3.832s-3.832-1.7148-3.832-3.832 1.7148-3.832 3.832-3.832 3.8359 1.7148 3.8359 3.832"/>
     <path d="m252.83 212.85c0 2.1172-1.7148 3.832-3.832 3.832-2.1172 0-3.8359-1.7148-3.8359-3.832s1.7188-3.832 3.8359-3.832c2.1172 0 3.832 1.7148 3.832 3.832"/>
     <path d="m297.92 275.87c-0.1289 0-0.25781-0.0469-0.35547-0.14453-0.19531-0.19532-0.19531-0.51172 0-0.70703l116.49-116.49c0.19532-0.19531 0.51172-0.19531 0.70704 0 0.19531 0.19532 0.19531 0.51172 0 0.70704l-116.49 116.49c-0.0976 0.0976-0.22656 0.14453-0.35156 0.14453"/>
    </g>
    <path d="m312.41 282.35c-0.12891 0-0.25782-0.0469-0.35547-0.14453-0.19531-0.19531-0.19531-0.51172 0-0.70703l116.49-116.49c0.19531-0.19531 0.51172-0.19531 0.70703 0s0.19531 0.51172 0 0.70703l-116.49 116.49c-0.0977 0.0977-0.22656 0.14453-0.35156 0.14453" fill="#aeb5b6"/>
    <g fill="#cfdadd">
     <path d="m438.2 406.74h-167.77l-73.453-73.453c-0.19532-0.19922-0.19532-0.51172 0-0.71094 0.19531-0.19531 0.51172-0.19531 0.70703 0l73.16 73.164h167.36c0.27734 0 0.5 0.22265 0.5 0.5 0 0.27734-0.22266 0.5-0.5 0.5"/>
     <g stroke="#9ec3de">
      <path d="m80.256 347.33h-6.2539l-9.4336-9.7852h6.2539l9.4336 9.7852"/>
      <path d="m92.041 347.33h-6.2539l-9.4336-9.7852h6.25l9.4375 9.7852"/>
      <path d="m103.83 347.33h-6.2539l-9.4336-9.7852h6.25l9.4375 9.7852"/>
      <path d="m115.61 347.33h-6.2539l-9.4375-9.7852h6.2539l9.4375 9.7852"/>
      <path d="m127.39 347.33h-6.25l-9.4375-9.7852h6.2539l9.4336 9.7852"/>
      <path d="m139.18 347.33h-6.25l-9.4375-9.7852h6.2539l9.4336 9.7852"/>
      <path d="m150.96 347.33h-6.2539l-9.4336-9.7852h6.25l9.4375 9.7852"/>
      <path d="m162.75 347.33h-6.2539l-9.4336-9.7852h6.25l9.4375 9.7852"/>
     </g>
     <g stroke="#dedeb3">
      <path d="m-34.197 437.41h-11.598l-17.5-18.152h11.598l17.5 18.152"/>
      <path d="m-12.342 437.41h-11.598l-17.5-18.152h11.598l17.5 18.152"/>
      <path d="m9.5138 437.41h-11.598l-17.496-18.152h11.594l17.5 18.152"/>
      <path d="m31.369 437.41h-11.598l-17.5-18.152h11.598l17.5 18.152"/>
      <path d="m53.225 437.41h-11.594l-17.504-18.152h11.598l17.5 18.152"/>
      <path d="m75.08 437.41h-11.594l-17.5-18.152h11.594l17.5 18.152"/>
      <path d="m96.936 437.41h-11.598l-17.496-18.152h11.594l17.5 18.152"/>
      <path d="m118.79 437.41h-11.598l-17.496-18.152h11.594l17.5 18.152"/>
     </g>
     <path d="m337.5 188.76h11.598l17.496-18.156h-11.594l-17.5 18.156"/>
     <path d="m315.65 188.76h11.598l17.496-18.156h-11.594l-17.5 18.156"/>
     <path d="m293.79 188.76h11.594l17.5-18.156h-11.594l-17.5 18.156"/>
     <path d="m271.94 188.76h11.594l17.5-18.156h-11.594l-17.5 18.156"/>
     <path d="m250.08 188.76h11.594l17.5-18.156h-11.594l-17.5 18.156"/>
     <path d="m228.22 188.76h11.598l17.5-18.156h-11.594l-17.504 18.156"/>
     <path d="m206.37 188.76h11.598l17.5-18.156h-11.594l-17.504 18.156"/>
     <path d="m184.51 188.76h11.594l17.5-18.156h-11.598l-17.496 18.156"/>
    </g>
    <g fill="#aeb5b6">
     <path d="m-235.73 388.36h7.1055l9.9453-9.3047-11.133-10.414h-7.1055l11.133 10.414-9.9453 9.3047"/>
     <path d="m-224.63 388.36h7.1055l9.9453-9.3047-11.137-10.414h-7.1016l11.133 10.414-9.9453 9.3047"/>
     <path d="m-213.54 388.36h7.1055l9.9414-9.3047-11.133-10.414h-7.1055l11.137 10.414-9.9453 9.3047"/>
     <path d="m-202.45 388.36h7.1016l9.9453-9.3047-11.133-10.414h-7.1055l11.133 10.414-9.9414 9.3047"/>
     <path d="m-191.36 388.36h7.1055l9.9453-9.3047-11.133-10.414h-7.1055l11.133 10.414-9.9453 9.3047"/>
     <path d="m-180.26 388.36h7.1055l9.9453-9.3047-11.137-10.414h-7.1016l11.133 10.414-9.9453 9.3047"/>
     <path d="m-169.17 388.36h7.1055l9.9414-9.3047-11.133-10.414h-7.1055l11.137 10.414-9.9453 9.3047"/>
     <path d="m-158.08 388.36h7.1016l9.9453-9.3047-11.133-10.414h-7.1055l11.133 10.414-9.9414 9.3047"/>
     <path d="m-146.99 388.36h7.1055l9.9453-9.3047-11.133-10.414h-7.1055l11.133 10.414-9.9453 9.3047"/>
     <path d="m-135.89 388.36h7.1055l9.9453-9.3047-11.137-10.414h-7.1016l11.133 10.414-9.9453 9.3047"/>
     <path d="m-124.8 388.36h7.1055l9.9453-9.3047-11.137-10.414h-7.1055l11.137 10.414-9.9453 9.3047"/>
    </g>
    <g fill="#cfdadd">
     <path d="m205.91 238.62h5.8828l8.2383-7.707-9.2227-8.625h-5.8828l9.2188 8.625-8.2344 7.707"/>
     <path d="m215.1 238.62h5.8828l8.2383-7.707-9.2227-8.625h-5.8828l9.2188 8.625-8.2344 7.707"/>
     <path d="m224.29 238.62h5.8828l8.2383-7.707-9.2227-8.625h-5.8867l9.2227 8.625-8.2344 7.707"/>
     <path d="m233.47 238.62h5.8828l8.2383-7.707-9.2227-8.625h-5.8828l9.2188 8.625-8.2344 7.707"/>
     <path d="m242.66 238.62h5.8828l8.2383-7.707-9.2227-8.625h-5.8828l9.2188 8.625-8.2344 7.707"/>
     <path d="m251.85 238.62h5.8828l8.2383-7.707-9.2227-8.625h-5.8828l9.2188 8.625-8.2344 7.707"/>
     <path d="m261.04 238.62h5.8828l8.2383-7.707-9.2227-8.625h-5.8828l9.2188 8.625-8.2344 7.707"/>
     <path d="m270.22 238.62h5.8828l8.2383-7.707-9.2227-8.625h-5.8828l9.2188 8.625-8.2344 7.707"/>
     <path d="m279.41 238.62h5.8828l8.2383-7.707-9.2227-8.625h-5.8828l9.2188 8.625-8.2344 7.707"/>
     <path d="m288.6 238.62h5.8828l8.2383-7.707-9.2227-8.625h-5.8828l9.2188 8.625-8.2344 7.707"/>
     <path d="m297.78 238.62h5.8867l8.2383-7.707-9.2227-8.625h-5.8828l9.2188 8.625-8.2383 7.707"/>
    </g>
   </g>
  </g>
  <g fill="none" stroke-linecap="round" stroke-linejoin="round" stroke-width=".732">
   <path d="m131.42 39.619c1.4958-0.08983 3.2717 2.072 1.5059-0.37831-1.695-0.91113 0.61921-2.4351 1.2018-3.6282 1.827-1.7443 5.5931-2.3806 6.7116 0.47757 0.28477 2.3402 2.8338 0.8934 2.2585 2.7987 2.3674 2.025 5.9901 1.515 8.6913 2.9258-0.64766 1.2614-0.0988 4.4494 1.8863 3.5981 3.3944 0.24679 0.70112 1.7895-1.0483 2.3799-0.27288 0.23554-0.54577 0.47108-0.81865 0.70662v2e-5c-1.9601 2.254-4.2933 4.6941-3.8071 7.9566 0.57386 1.7962 0.24982 3.6135 0.44856 5.361 0.74379 1.6933 3.847 1.2833 0.85486 2.0086 1.4824 1.5667-0.35281 2.5911-0.37813 3.8324 1.075 1.6466-2.8974 1.9351-1.9791 3.9902-0.14539 1.3943-1.2728 2.8919-0.28857 4.1331-0.83052 1.3482-2.5645 2.4119-2.9001 3.8306-1.1298 0.49186-1.5393 1.436-1.8634 2.4501" stroke="url(#linearGradient11)"/>
   <path d="m90.076 90.908c0.86256-1.6331 1.0006-3.864 2.9082-4.6867 1.1791-1.2806 0.93935-3.0818 2.0221-4.4026 1.6501-1.6098 2.5878-3.5019 3.0343-5.7413 1.3881-1.9707 1.6091-4.5167 3.6363-6.0528 1.6581-1.1294 1.7414-3.0003 2.5492-4.6201 0.35623-1.8772 1.7989-2.2402 2.6562-3.6391 0.99236-2.0189 3.5038-0.33633 3.4324-2.5125 1.187-1.4259 1.7563-2.9823 2.6987-4.666 1e-3 -1.287 0.56657-2.4421 1.1947-3.7221 1.3143-0.91363 1.3825-3.1003 2.6693-4.3648 1.0974-2.1843 3.45-2.6127 5.4453-3.5152 2.4848-2.4196 6.6201-1.0068 9.0987-3.3664" stroke="url(#linearGradient9)"/>
   <path d="m108.03 174.8c-1.3736-1.1739-2.7261 2.5323-2.7818-0.65261-0.63057-1.4865-1.0763-3.1754-0.6566-4.9319 1.0429-1.7335-1.0194-3.6937-1.3102-5.5085-0.60578-2.3691-2.0842-4.2374-3.174-6.3509-1.7088-0.85108-2.1997-2.5411-4.05-3.1105-1.3169-1.3104-2.8976-1.4152-4.2795-2.2965-1.1747-0.574-3.6706-3.7485-1.6448-1.9793 1.2331 0.77947 0.1366-1.8355-0.9586-2.2354-2.0086-1.0299-1.6004-2.7379-1.5787-4.4596-0.71225-1.723-2.5898-3.4618-1.6597-5.4462-1.7298-1.518-0.70104-4.3859-2.3741-5.9079 2.3094-0.85895 0.0595-3.7529-0.59505-1.1287-0.99902-0.41333-0.62078-3.1738-2.3394-1.1668-2.4331-1.6851 3.0146-2.2298 0.48174-3.0003-0.9241-0.40919 0.83451-0.7278-0.64502-2.4742 1.6232-0.54148 0.35745-2.6039 1.3139-3.7904 1.2887-1.5819-0.0529-2.3576 1.8413-2.8995-0.92221 0.10525-0.88982-1.771 0.70584-1.9008-0.53831-1.6642-1.5015-3.0064-0.786-4.324 0.83336-1.0792-1.6259-1.2886-4.8e-4 -3.4528-0.26471-2.3728 0.26996-4.6897 1.2152-6.793 0.0251-2.2246 1.541-3.9374 2.8586-5.4663 0.1399-1.8985 2.1737-2.7157 2.4618-4.6137" stroke="url(#linearGradient15)"/>
   <path d="m141.9 82.061c-0.3327 1.0409-0.5755 2.1556-1.415 2.9307-1.0503 1.6031 1.6311 2.9122 0.11384 4.3488-0.55498 2.2943-0.84104 4.7589-1.8303 6.9797-0.48259 2.7183-1.0517 5.4164-1.9909 7.9732-0.44365 2.1718-0.75547 4.3846-1.1086 6.5846-0.35231 2.1948-0.74576 4.3768-1.3523 6.4926-2.1445 1.985-1.8877 4.9604-2.0722 7.6012-0.36388 1.7694-2.3976 2.2669-2.5974 4.086-1.0224 1.8118-0.95362 4.0931-2.5866 5.6175-0.82153 1.736-3.7434 2.3584-2.9341 4.7277-0.99418 2.8116-4.3016 3.4744-5.8507 5.8624-1.4732 1.18-1.4093 3.59-3.0356 4.8046-1.0582 2.2768-0.89696 5.0702-2.5876 7.1276-1.4049 4.0228-0.36028 8.4699-0.57415 12.669 0.64938 2.1528-1.9852 2.992-1.6531 4.8756 0.78818 3.4275-0.50157 0.78808-2.3905 0.0558" stroke="url(#linearGradient13)"/>
  </g>
  <text x="4.0319705" y="26.682312" fill="#5b5b5b" font-family="'FONTSPRING DEMO - Conthrax Rg'" font-size="31.092px" stroke-width=".89689" style="font-variant-caps:normal;font-variant-east-asian:normal;font-variant-ligatures:normal;font-variant-numeric:normal;line-height:1.25" xml:space="preserve"><tspan x="4.0319705" y="26.682312" fill="#5b5b5b" font-family="'FONTSPRING DEMO - Conthrax Bk'" font-size="31.092px" stroke-width=".89689" style="font-variant-caps:normal;font-variant-east-asian:normal;font-variant-ligatures:normal;font-variant-numeric:normal">Taiwan</tspan></text>
  <text x="4.0319705" y="54.895172" fill="#5b5b5b" font-family="'FONTSPRING DEMO - Conthrax Rg'" font-size="31.092px" stroke-width=".897" style="font-variant-caps:normal;font-variant-east-asian:normal;font-variant-ligatures:normal;font-variant-numeric:normal;line-height:1.25" xml:space="preserve"><tspan x="4.0319705" y="54.895172" fill="#5b5b5b" font-family="'FONTSPRING DEMO - Conthrax Bk'" font-size="31.092px" stroke-width=".897" style="font-variant-caps:normal;font-variant-east-asian:normal;font-variant-ligatures:normal;font-variant-numeric:normal">THz</tspan></text>
  <path d="m162.71 30.021c-3.6177 0.01052-7.3208 0.27134-7.874-2.8956-0.55324-3.1669-0.83522-13.664-1.7652-13.671-0.96543 0.10251-0.34352 26.896-1.1247 26.683-0.7358 0.15159-1.1653-9.2981-3.0027-11.242-0.53029-0.53261-0.42149 0.50119-1.4292 1.4664-1.0077 0.96518-1.3539-2.2747-2.3145 0.06378-0.96063 2.3385-2.2373-3.0342-3.1114-0.70798s-1.8839-1.9451-2.9438 0.54646-2.6864-3.366-3.9307-0.67418-2.205-0.97129-3.8566 0.9946-4.7168-0.01399-8.0563-0.20617c-2.06 0.14908-3.5294-0.06275-6.2922-0.04183-2.558-0.22684-4.5336-0.31015-7.1769-0.11918s-5.7448-0.9706-8.7243 0.15288c-2.9795 1.1235-6.7617-0.69245-10.031-0.44949-3.2689 0.24296-5.7922 0.39089-8.8052 0.07141-4.6613 0.41066-9.1541-0.18991-13.841 0.21481-4.4872-0.18734-9.0996-0.43144-13.703-0.19773-17.737-0.01159-31.77-0.02267-49.506-0.03213" fill="none" marker-start="url(#DartArrow)" stroke="#9e9000" stroke-linejoin="round" stroke-miterlimit="10" stroke-width=".78"/>
  <g fill="#5b5b5b">
   <text x="4.5118155" y="73.773666" font-family="'FONTSPRING DEMO - Conthrax Rg'" font-size="20.597px" stroke-width=".59423" style="font-variant-caps:normal;font-variant-east-asian:normal;font-variant-ligatures:normal;font-variant-numeric:normal;line-height:1.25" xml:space="preserve"><tspan x="4.5118155" y="73.773666" fill="#5b5b5b" font-family="'FONTSPRING DEMO - Conthrax Bk'" font-size="20.597px" stroke-width=".59423" style="font-variant-caps:normal;font-variant-east-asian:normal;font-variant-ligatures:normal;font-variant-numeric:normal">WAVE</tspan></text>
   <text x="4.0947423" y="86.192696" font-family="'FONTSPRING DEMO - Conthrax Rg'" font-size="12.906px" stroke-width=".37234" style="font-variant-caps:normal;font-variant-east-asian:normal;font-variant-ligatures:normal;font-variant-numeric:normal;line-height:1.25" xml:space="preserve"><tspan x="4.0947423" y="86.192696" fill="#5b5b5b" font-family="'FONTSPRING DEMO - Conthrax Bk'" font-size="12.906px" stroke-width=".37234" style="font-variant-caps:normal;font-variant-east-asian:normal;font-variant-ligatures:normal;font-variant-numeric:normal">research</tspan></text>
   <g font-family="'AR PL KaitiM Big5'">
    <text x="0.030040594" y="112.62008" font-size="27.142px" stroke-width=".78294" writing-mode="tb-rl" style="font-variant-caps:normal;font-variant-east-asian:normal;font-variant-ligatures:normal;font-variant-numeric:normal;line-height:1.15" xml:space="preserve"><tspan x="0.030040594" y="112.62008" fill="#5b5b5b" font-family="TW-Sung" font-size="27.142px" stroke-width=".78294" writing-mode="lr-tb" style="font-variant-caps:normal;font-variant-east-asian:normal;font-variant-ligatures:normal;font-variant-numeric:normal"></tspan></text>
    <text x="2.2814453" y="111.29943" font-size="24.03px" stroke-width=".66087" style="font-variant-caps:normal;font-variant-east-asian:normal;font-variant-ligatures:normal;font-variant-numeric:normal;line-height:1.15" xml:space="preserve"><tspan x="2.2814453" y="111.29943"/><tspan x="2.2814453" y="139.91905" font-family="TW-Sung" font-size="24.03px" style="font-variant-caps:normal;font-variant-east-asian:normal;font-variant-ligatures:normal;font-variant-numeric:normal"></tspan><tspan x="2.2814453" y="167.55309"/></text>
    <text x="2.2792525" y="170.23801" font-size="27.801px" stroke-width=".61836" writing-mode="tb-rl" style="font-variant-caps:normal;font-variant-east-asian:normal;font-variant-ligatures:normal;font-variant-numeric:normal;line-height:1.15" xml:space="preserve"><tspan x="2.2792525" y="170.23801" fill="#5b5b5b" font-family="TW-Sung" font-size="27.801px" stroke-width=".61836" writing-mode="lr-tb" style="font-variant-caps:normal;font-variant-east-asian:normal;font-variant-ligatures:normal;font-variant-numeric:normal"></tspan></text>
   </g>
  </g>
 </g>
</svg>
